<svg id="Capa_1" enable-background="new 0 0 512 512" height="512" viewBox="0 0 512 512" width="512" xmlns="http://www.w3.org/2000/svg"><path d="m94.942 103.566h214.43v259.923h-214.43z" fill="#a698a6"/><path d="m262.747 103.566v214.711h-167.805v45.213h214.43v-259.924z" fill="#8f818f"/><circle cx="202.157" cy="27.092" fill="#e0dde2" r="19.605"/><path d="m210.544 9.369c.798 2.136 1.237 4.447 1.237 6.86 0 10.828-8.778 19.606-19.605 19.606-3.001 0-5.844-.677-8.387-1.882 2.781 7.444 9.955 12.745 18.369 12.745 10.828 0 19.605-8.778 19.605-19.606 0-7.827-4.588-14.58-11.219-17.723z" fill="#c8c1c9"/><path d="m202.157 280.142c-27.609 0-49.99-22.381-49.99-49.99v-12.67c0-27.609 22.381-49.99 49.99-49.99 27.609 0 49.99 22.381 49.99 49.99v12.67c.001 27.609-22.381 49.99-49.99 49.99z" fill="#ffcbbe"/><path d="m333.593 337.545v-206.69c0-4.447 1.717-8.775 4.944-11.835 6.337-6.01 10.073-14.736 9.336-24.316-1.152-14.986-13.482-26.995-28.491-27.787-8.779-.463-16.793 2.825-22.587 8.403-3.114 2.998-7.252 4.697-11.576 4.697h-166.124c-4.323 0-8.461-1.699-11.576-4.697-5.794-5.578-13.808-8.866-22.587-8.403-15.009.793-27.339 12.802-28.491 27.788-.737 9.58 2.999 18.305 9.336 24.315 3.227 3.06 4.944 7.388 4.944 11.835v206.69c0 4.447-1.717 8.775-4.944 11.835-6.337 6.01-10.073 14.736-9.336 24.316 1.152 14.986 13.482 26.995 28.491 27.787 8.78.463 16.793-2.825 22.587-8.403 3.114-2.998 7.252-4.697 11.576-4.697h166.125c4.323 0 8.461 1.699 11.576 4.697 5.794 5.578 13.807 8.866 22.587 8.403 15.009-.792 27.339-12.801 28.491-27.787.737-9.58-2.999-18.306-9.336-24.316-3.228-3.06-4.945-7.388-4.945-11.835zm-48.09 5.39h-166.692c-1.459 0-2.642-1.183-2.642-2.642v-212.186c0-1.459 1.183-2.642 2.642-2.642h166.692c1.459 0 2.642 1.183 2.642 2.642v212.186c0 1.459-1.183 2.642-2.642 2.642z" fill="#e7b467"/><path d="m333.593 337.545v-206.69c0-4.447 1.717-8.775 4.944-11.835 6.337-6.01 10.073-14.736 9.336-24.316-1.152-14.986-13.482-26.995-28.491-27.787-5.829-.308-11.316 1.046-16.044 3.618 8.754 4.771 14.963 13.748 15.764 24.169.737 9.58-2.999 18.306-9.336 24.316-3.227 3.06-4.944 7.388-4.944 11.835v206.69c0 4.447 1.717 8.775 4.944 11.835 6.337 6.01 10.073 14.736 9.336 24.316-.801 10.421-7.01 19.397-15.764 24.169 4.728 2.572 10.215 3.926 16.044 3.618 15.009-.792 27.339-12.801 28.491-27.787.737-9.58-2.999-18.306-9.336-24.316-3.227-3.06-4.944-7.388-4.944-11.835z" fill="#d7a85f"/><path d="m449.662 253.913h-164.061c-8.269 0-14.972 6.703-14.972 14.972v145.173 72.196c0-10.085 8.175-18.26 18.26-18.26h10.763 150.01c3.308 0 5.989-2.681 5.989-5.989v-202.103c0-3.308-2.681-5.989-5.989-5.989z" fill="#fa6931"/><path d="m436.697 486.254c0-7.642 3.931-14.362 9.878-18.26h-157.686c-10.085 0-18.26 8.175-18.26 18.26 0 10.085 8.175 18.26 18.26 18.26h153.118c1.462 0 2.164-1.761 1.127-2.792-3.975-3.951-6.437-9.421-6.437-15.468z" fill="#eedfda"/><path d="m436.697 486.254c0-7.642 3.931-14.362 9.878-18.26h-14.947c-5.947 3.898-9.878 10.618-9.878 18.26 0 7.642 3.931 14.362 9.878 18.26h10.378c1.462 0 2.164-1.761 1.127-2.792-3.974-3.951-6.436-9.421-6.436-15.468z" fill="#ded0cb"/><path d="m449.662 253.913h-15.97v163.012c0 15.525-12.586 28.111-28.111 28.111h-127.888-7.064v41.217c0-10.085 8.175-18.26 18.26-18.26h10.763 150.01c3.307 0 5.989-2.681 5.989-5.989v-202.102c0-3.308-2.681-5.989-5.989-5.989z" fill="#fc5327"/><path d="m259.634 230.152v-12.67c0-31.693-25.784-57.476-57.476-57.476s-57.476 25.784-57.476 57.476v12.67c0 31.693 25.784 57.476 57.476 57.476s57.476-25.783 57.476-57.476zm-99.981 0v-12.67c0-23.437 19.067-42.504 42.504-42.504s42.504 19.068 42.504 42.504v12.67c0 23.437-19.067 42.504-42.504 42.504s-42.504-19.067-42.504-42.504z"/><circle cx="180.635" cy="217.976" r="9.04"/><circle cx="223.679" cy="217.976" r="9.04"/><path d="m449.662 246.427h-68.399c-4.135 0-7.486 3.351-7.486 7.486s3.351 7.486 7.486 7.486h66.902v199.108h-1.59-157.686c-3.7 0-7.415.81-10.775 2.364v-193.986c0-4.128 3.359-7.486 7.487-7.486h60.974c4.135 0 7.486-3.351 7.486-7.486s-3.351-7.486-7.486-7.486h-5.496v-115.572c0-2.496.951-4.83 2.609-6.402 8.28-7.853 12.526-18.905 11.648-30.322-1.444-18.782-16.731-33.696-35.56-34.688-10.558-.563-20.571 3.166-28.174 10.484-1.744 1.679-4.011 2.604-6.383 2.604h-27.34l-31.482-33.361c1.82-3.639 2.851-7.739 2.851-12.078.001-14.939-12.152-27.092-27.091-27.092-14.938 0-27.091 12.153-27.091 27.092 0 4.338 1.031 8.438 2.851 12.077l-31.482 33.362h-27.34c-1.797 0-3.549-.534-5.067-1.546-3.44-2.292-8.088-1.36-10.38 2.08-2.292 3.441-1.361 8.088 2.08 10.381 3.984 2.654 8.607 4.057 13.368 4.057h166.124c6.264 0 12.218-2.411 16.766-6.79 4.583-4.413 10.621-6.651 17.002-6.32 11.342.598 20.551 9.577 21.421 20.886.53 6.9-2.029 13.574-7.024 18.309-4.625 4.387-7.278 10.68-7.278 17.266v115.573h-30.476v-118.32c0-5.584-4.543-10.128-10.128-10.128h-166.692c-5.585 0-10.128 4.543-10.128 10.128v157.941c0 4.135 3.352 7.486 7.486 7.486s7.486-3.351 7.486-7.486v-153.097h157.004v114.031c-10.013 2.258-17.517 11.218-17.517 21.903v66.564h-139.487v-14.934c0-4.135-3.352-7.486-7.486-7.486s-7.486 3.351-7.486 7.486v19.778c0 5.584 4.544 10.128 10.128 10.128h144.331v30.476h-144.047c-6.265 0-12.219 2.411-16.767 6.79-4.583 4.413-10.624 6.65-17.001 6.32-11.343-.598-20.551-9.577-21.421-20.886-.531-6.9 2.029-13.573 7.023-18.309 4.626-4.387 7.278-10.68 7.278-17.266v-206.69c0-6.587-2.653-12.881-7.279-17.267-4.994-4.735-7.554-11.409-7.023-18.309.745-9.688 7.912-18.039 17.43-20.309 4.021-.959 6.504-4.996 5.545-9.018-.959-4.023-4.993-6.5-9.018-5.546-15.769 3.759-27.647 17.628-28.885 33.723-.878 11.417 3.368 22.469 11.65 30.322 1.658 1.572 2.609 3.906 2.609 6.403v206.69c0 2.496-.951 4.831-2.608 6.403-8.282 7.852-12.528 18.904-11.65 30.321 1.444 18.782 16.732 33.696 35.559 34.688.693.037 1.383.056 2.07.056 9.797-.001 19.001-3.7 26.105-10.54 1.744-1.679 4.012-2.604 6.384-2.604h144.048v90.385c0 14.196 11.55 25.746 25.746 25.746h153.117c3.702 0 7.005-2.208 8.415-5.626 1.415-3.429.626-7.339-2.01-9.96-2.726-2.712-4.228-6.319-4.228-10.16v-.001c0-4.169 1.8-8.067 4.891-10.774h.589c7.43 0 13.475-6.044 13.475-13.475v-202.102c-.002-7.431-6.047-13.475-13.477-13.475zm-247.505-231.455c6.683 0 12.119 5.437 12.119 12.12s-5.437 12.12-12.119 12.12c-6.683 0-12.119-5.437-12.119-12.12s5.436-12.12 12.119-12.12zm-14.087 35.252c4.107 2.51 8.931 3.959 14.087 3.959s9.979-1.449 14.087-3.959l21.05 22.307h-70.273zm243.177 446.804h-142.358c-5.941 0-10.774-4.834-10.774-10.775 0-2.97 1.208-5.664 3.159-7.615 1.707-1.707 3.983-2.846 6.515-3.103.362-.037.729-.056 1.1-.056h142.366c-1.333 3.377-2.044 7.023-2.044 10.775 0 3.749.699 7.39 2.036 10.774z"/><path d="m392.047 330.06h-58.454c-4.135 0-7.486 3.351-7.486 7.486s3.351 7.486 7.486 7.486h58.454c4.135 0 7.486-3.351 7.486-7.486s-3.351-7.486-7.486-7.486z"/><path d="m392.047 356.011h-58.454c-4.135 0-7.486 3.351-7.486 7.486s3.351 7.486 7.486 7.486h58.454c4.135 0 7.486-3.351 7.486-7.486s-3.351-7.486-7.486-7.486z"/><path d="m219.679 241.099c-2.125-3.528-6.705-4.664-10.232-2.54-2.033 1.223-4.622 1.898-7.29 1.898s-5.257-.674-7.291-1.898c-3.528-2.124-8.107-.986-10.232 2.542-2.123 3.528-.985 8.108 2.542 10.232 4.385 2.64 9.564 4.035 14.981 4.035 5.418 0 10.598-1.395 14.982-4.035 3.527-2.126 4.664-6.707 2.54-10.234z"/></svg>