<svg id="Capa_1" enable-background="new 0 0 512 512" height="512" viewBox="0 0 512 512" width="512" xmlns="http://www.w3.org/2000/svg"><g><g><path d="m44.732 386.811v-234.065h422.536v161.703l-83.224 80.963h-306.352z" fill="#93ecea"/><path d="m499.177 98.296v406.204l-58.083-19.464-5.736-53.312v-304.5z" fill="#d97c41"/><path d="m76.641 127.224v304.5l-5.736 53.312-58.083 19.464v-406.204z" fill="#d97c41"/><path d="m499.177 98.296-63.819 72.776h-358.717l-63.819-72.776z" fill="#e4996d"/><path d="m12.818 504.499 63.825-72.771h358.713l63.825 72.771z" fill="#e4996d"/><path d="m175.968 354.715v42.884l-52.337 34.126h-46.99v-61.94l19.454-28.629c3.976-5.845 9.275-10.527 15.338-13.738 6.074-3.221 12.913-4.97 19.991-4.97 14.145 0 27.376 7.008 35.319 18.708z" fill="#f9ee80"/><path d="m123.631 431.725 52.337-34.126v-42.884l-9.225-13.559c-2.88-4.242-6.462-7.858-10.524-10.756l-5.063 7.452-63.798 93.873z" fill="#fdc072"/><path d="m294.39 338.263v54.475l-63.511 38.987h-107.248l52.337-77.01 29.474-43.381c3.976-5.845 9.275-10.527 15.338-13.738 6.074-3.221 12.913-4.97 19.991-4.97 14.145 0 27.376 7.008 35.319 18.708z" fill="#f9ee80"/><path d="m230.88 431.725 63.51-38.988v-54.474l-18.136-26.687-81.645 120.149z" fill="#fdc072"/><path d="m435.358 308.352v123.373h-204.478l63.511-93.462 45.319-66.692c3.976-5.845 9.275-10.527 15.338-13.738 6.074-3.221 12.923-4.97 19.991-4.97 14.145 0 27.376 7.008 35.329 18.708z" fill="#f9ee80"/><circle cx="175.968" cy="245.194" fill="#ff8a98" r="28.884"/><path d="m195.968 264.079c-15.952 0-28.884-12.932-28.884-28.885 0-7.189 2.633-13.76 6.978-18.815-15.063.982-26.978 13.504-26.978 28.815 0 15.953 12.932 28.885 28.884 28.885 8.763 0 16.609-3.908 21.906-10.07-.631.041-1.265.07-1.906.07z" fill="#ff6e80"/><circle cx="256" cy="29.705" fill="#5c576e" r="22.205"/></g><g><path d="m175.968 281.579c20.063 0 36.385-16.322 36.385-36.385s-16.322-36.384-36.385-36.384-36.384 16.322-36.384 36.384 16.321 36.385 36.384 36.385zm0-57.769c11.792 0 21.385 9.593 21.385 21.384s-9.593 21.385-21.385 21.385-21.384-9.593-21.384-21.385 9.592-21.384 21.384-21.384z"/><path d="m181.709 145.6c4.142 0 7.5-3.358 7.5-7.5v-14.276c0-4.142-3.358-7.5-7.5-7.5s-7.5 3.358-7.5 7.5v14.276c0 4.142 3.358 7.5 7.5 7.5z"/><path d="m330.291 145.6c4.142 0 7.5-3.358 7.5-7.5v-14.276c0-4.142-3.358-7.5-7.5-7.5s-7.5 3.358-7.5 7.5v14.276c0 4.142 3.358 7.5 7.5 7.5z"/><path d="m256 154.098c9.674 0 18.874-4.19 25.241-11.496 2.721-3.123 2.396-7.86-.727-10.582-3.123-2.721-7.86-2.396-10.582.727-3.517 4.036-8.596 6.351-13.932 6.351-5.337 0-10.415-2.315-13.932-6.351-2.721-3.124-7.459-3.449-10.582-.727-3.123 2.721-3.448 7.459-.727 10.582 6.367 7.306 15.566 11.496 25.241 11.496z"/><path d="m12.818 512h486.363c4.148 0 7.551-3.45 7.496-7.596v-406.107c0-4.188-3.498-7.5-7.5-7.5h-180.708l-38.047-44.21c3.327-4.798 5.283-10.614 5.283-16.882 0-16.379-13.326-29.705-29.705-29.705s-29.705 13.326-29.705 29.705c0 6.267 1.956 12.083 5.283 16.881l-38.047 44.21h-180.708c-4.051 0-7.5 3.331-7.5 7.5v406.101c-.057 4.127 3.316 7.603 7.495 7.603zm7.505-393.775 48.819 55.67v61.714c0 4.142 3.358 7.5 7.5 7.5s7.5-3.358 7.5-7.5v-57.037h343.717v105.396l-11.288-16.613c-19.896-29.271-63.111-29.326-83.064.001l-39.116 57.563-11.031-16.231c-.673-.637-11.585-21.075-38.3-23.357-18.474-1.581-35.79 7.043-45.821 21.789l-23.277 34.253-3.013-4.429c-19.95-29.388-63.208-29.184-83.056-.003l-5.751 8.463v-81.665c0-4.142-3.358-7.5-7.5-7.5s-7.5 3.358-7.5 7.5v165.169l-48.819 55.662v-366.345zm140.219 227.15 6.354 9.339-47.237 69.511h-35.518v-52.133l18.155-26.718c13.976-20.544 44.289-20.559 58.246.001zm109.345-29.826 15.436 22.713-58.414 85.962h-89.113l73.847-108.672c14.02-20.608 44.335-20.491 58.244-.003zm172.971 113.358v-49.781c0-4.142-3.358-7.5-7.5-7.5s-7.5 3.358-7.5 7.5v45.098h-182.814l100.866-148.434c13.943-20.491 44.26-20.592 58.254-.004l23.694 34.872v38.751c0 4.142 3.358 7.5 7.5 7.5s7.5-3.358 7.5-7.5v-175.514l48.819-55.67v366.344zm-413.485 68.093 50.669-57.771h351.917l50.668 57.771zm226.627-482c8.108 0 14.705 6.597 14.705 14.705s-6.597 14.705-14.705 14.705-14.705-6.597-14.705-14.705 6.596-14.705 14.705-14.705zm-13.06 41.377c3.944 1.939 8.376 3.032 13.059 3.032s9.115-1.093 13.059-3.032l29.621 34.419h-85.359zm239.685 49.419-50.665 57.775h-351.92l-50.665-57.775z"/></g></g></svg>