<svg viewBox="-61 0 512 512.001" xmlns="http://www.w3.org/2000/svg"><path d="m269.960938 399.714844-111.582032 76.589844-23.398437-12.097657-134.980469-64.492187 59.992188-59.992188 55.191406-24.59375 19.796875 5.097656 74.988281 19.496094zm0 0" fill="#444"/><path d="m269.960938 399.714844-111.582032 76.589844-23.398437-12.097657v-143.980469l74.988281 19.496094zm0 0" fill="#292929"/><path d="m196.472656 218.542969c-18.597656 22.796875-34.792968 47.691406-47.992187 74.085937l-13.5-6.597656-13.496094-6.597656c4.199219-8.398438 8.699219-16.5 13.496094-24.597656 11.398437-19.496094 24.296875-38.09375 38.398437-55.191407zm0 0" fill="#5a5a5a"/><path d="m196.472656 218.542969c-18.597656 22.796875-34.792968 47.691406-47.992187 74.085937l-13.5-6.597656v-31.195312c11.398437-19.496094 24.296875-38.09375 38.398437-55.191407zm0 0" fill="#444"/><path d="m59.992188 286.03125h149.976562v53.691406h-149.976562zm0 0" fill="#ff4b00"/><path d="m134.980469 286.03125h74.988281v53.691406h-74.988281zm0 0" fill="#d03b00"/><path d="m370.085938 2.929688c-3.253907.46875-80.117188 12.289062-135.699219 67.871093s-67.402344 133.445313-67.871094 136.699219l-.011719.0625 24.996094 15.445312c16.222656-3.363281 55.265625-13.4375 93.5625-38.679687l6.738281-4.453125v-28.824219h33.523438l4.496093-5.226562c46.578126-54.207031 56.859376-123.046875 57.269532-125.890625l2.914062-19.933594zm0 0" fill="#d2c5c2"/><path d="m29.996094 271.035156h209.96875v29.996094h-209.96875zm0 0" fill="#6e6e6e"/><path d="m134.980469 271.035156h104.984375v29.996094h-104.984375zm0 0" fill="#5a5a5a"/><path d="m0 399.714844h269.960938v112.285156h-269.960938zm0 0" fill="#ff9f00"/><path d="m134.980469 399.714844h134.980469v112.285156h-134.980469zm0 0" fill="#ff7816"/></svg>